<?xml version="1.0" standalone="no"?><!DOCTYPE svg PUBLIC "-//W3C//DTD SVG 1.1//EN" "http://www.w3.org/Graphics/SVG/1.1/DTD/svg11.dtd">
<svg t="1515112858218" class="icon" style="" viewBox="0 0 3705 1024" version="1.1" xmlns="http://www.w3.org/2000/svg" p-id="3906" xmlns:xlink="http://www.w3.org/1999/xlink" width="723.6328125" height="200dp"><defs><style type="text/css"></style></defs><path d="M1340.04935 366.617275c-176.98765 0-328.69135 145.382712-328.69135 328.69135 0 176.98765 145.382712 328.69135 328.69135 328.69135 176.98765 0 328.69135-145.382712 328.69135-328.69135C1662.419712 511.999987 1517.037 366.617275 1340.04935 366.617275zM1340.04935 872.296275c-101.1358 0-183.308637-82.172837-183.308637-183.308637S1238.91355 505.679 1340.04935 505.679c101.1358 0 183.308637 82.172837 183.308637 183.308637S1441.18515 872.296275 1340.04935 872.296275z" p-id="3907"></path><path d="M2566.320924 372.938262l139.061725 0L2705.382649 1011.358l-139.061725 0L2566.320924 372.938262 2566.320924 372.938262zM2989.827087 0 2989.827087 1011.358l-139.061725 0L2850.765362 0 2989.827087 0 2989.827087 0zM1656.098725 372.938262l120.098762 0 126.41975 436.148137 120.098762-410.864187 132.740737 0 120.098762 410.864187 126.41975-436.148137L2528.394999 372.938262l-189.629625 638.419737-120.098762 0-126.41975-436.148137-126.41975 436.148137-120.098762 0L1656.098725 372.938262 1656.098725 372.938262zM3381.728311 360.296287c69.530862 0 132.740737 18.962962 183.308637 56.888887L3565.036949 0l139.061725 0 0 688.987637c0 183.308637-145.382712 328.69135-328.69135 328.69135-176.98765 0-328.69135-145.382712-328.69135-328.69135S3198.419674 360.296287 3381.728311 360.296287L3381.728311 360.296287zM3381.728311 505.679c-101.1358 0-183.308637 82.172837-183.308637 183.308637s82.172837 183.308637 183.308637 183.308637 183.308637-82.172837 183.308637-183.308637S3482.864111 505.679 3381.728311 505.679z" p-id="3908"></path><path d="M499.358012 0c132.740737 0 252.8395 50.5679 341.333325 139.061725l-88.493825 94.814812c-63.209875-63.209875-151.7037-101.1358-246.518512-101.1358-202.2716 0-366.617275 170.666662-366.617275 379.25925 0 120.098762 56.888887 227.55555 139.061725 297.086412 189.629625 151.7037 530.96295 63.209875 549.925912-208.592587L505.679 600.493812 505.679 461.432087l461.432087 0c6.320987 25.28395 6.320987 56.888887 6.320987 88.493825C973.432075 948.148125 549.925912 1137.77775 240.197525 948.148125 101.1358 859.6543 0 701.629612 0 511.999987 0 227.55555 221.234562 0 499.358012 0z" p-id="3909"></path></svg>