<?xml version="1.0" standalone="no"?>
<!DOCTYPE svg PUBLIC "-//W3C//DTD SVG 20010904//EN"
 "http://www.w3.org/TR/2001/REC-SVG-20010904/DTD/svg10.dtd">
<svg version="1.0" xmlns="http://www.w3.org/2000/svg"
 width="72.000000pt" height="72.000000pt" viewBox="0 0 72.000000 72.000000"
 preserveAspectRatio="xMidYMid meet">
<metadata>
Created by potrace 1.15, written by Peter Selinger 2001-2017
</metadata>
<g transform="translate(0.000000,72.000000) scale(0.100000,-0.100000)"
fill="#000000" stroke="none">
<path d="M124 528 c-37 -17 -44 -51 -44 -203 0 -157 7 -187 49 -205 57 -23
101 18 101 96 l0 34 65 0 65 0 0 -41 c0 -51 14 -77 47 -90 38 -14 79 5 92 43
6 17 11 68 11 113 l0 83 44 11 c55 14 103 60 112 108 10 54 -9 63 -132 63 -57
0 -114 -5 -127 -11 -25 -11 -47 -47 -47 -74 0 -21 -33 -35 -84 -35 -42 0 -46
2 -46 25 0 36 -19 71 -47 84 -28 13 -31 13 -59 -1z m60 -34 c9 -9 16 -32 16
-55 l0 -39 78 0 c75 0 79 -1 100 -30 13 -16 31 -30 42 -30 27 0 25 14 -5 34
-20 13 -25 25 -25 61 0 66 15 75 121 75 49 0 89 -4 89 -9 0 -5 7 -16 15 -25
13 -13 13 -19 3 -35 -14 -23 -76 -51 -113 -51 l-25 0 0 -109 c0 -86 -3 -113
-16 -125 -38 -39 -74 -5 -74 70 l0 54 -95 0 -95 0 0 -54 c0 -75 -36 -109 -74
-70 -23 23 -23 315 0 338 8 9 22 16 29 16 7 0 21 -7 29 -16z"/>
</g>
</svg>
